<?xml version="1.0" encoding="UTF-8"?>
<!DOCTYPE svg  PUBLIC '-//W3C//DTD SVG 1.1//EN'  'http://www.w3.org/Graphics/SVG/1.1/DTD/svg11.dtd'>
<svg enable-background="new 0 0 1000 1000" version="1.1" viewBox="0 0 1e3 1e3" xml:space="preserve" xmlns="http://www.w3.org/2000/svg">
<metadata> Svg Vector Icons : http://www.onlinewebfonts.com/icon </metadata>
<path d="m500 10.1c-270.5 0-490 219.4-490 489.8 0 270.5 219.5 490 490 490s490-219.5 490-490-219.5-489.8-490-489.8zm0 343.2c81 0 146.8 65.6 146.8 146.6s-65.8 146.8-146.8 146.8-146.8-65.8-146.8-146.8 65.8-146.6 146.8-146.6zm-415.3 178.1h205.3c15.2 102.3 103.5 180.7 210 180.7s194.8-78.4 210-180.7h205.3c-16.2 215.2-196 385.1-415.3 385.1s-399.2-169.8-415.3-385.1z"/>
</svg>
